<?xml version="1.0" encoding="UTF-8"?>
<svg xmlns="http://www.w3.org/2000/svg" xmlns:xlink="http://www.w3.org/1999/xlink" width="534px" height="300px" viewBox="0 0 533 300" version="1.1">
<g id="surface1">
<path style=" stroke:none;fill-rule:nonzero;fill:rgb(0%,0%,0%);fill-opacity:1;" d="M 0 0 C 175.890625 0 351.78125 0 533 0 C 533 99 533 198 533 300 C 357.109375 300 181.21875 300 0 300 C 0 201 0 102 0 0 Z M 0 0 "/>
<path style=" stroke:none;fill-rule:nonzero;fill:rgb(86.274511%,86.274511%,86.274511%);fill-opacity:1;" d="M 271.640625 92.121094 C 272.019531 92.285156 272.398438 92.445312 272.789062 92.613281 C 275.777344 93.988281 278.578125 95.640625 280.71875 98.183594 C 281.285156 100.226562 281.285156 100.226562 281.324219 101.816406 C 281.722656 101.816406 282.121094 101.816406 282.53125 101.816406 C 284.757812 108.789062 283.847656 115.953125 282.53125 123.03125 C 282.132812 123.03125 281.734375 123.03125 281.324219 123.03125 C 281.121094 124.628906 280.921875 126.230469 280.71875 127.878906 C 280.316406 127.878906 279.917969 127.878906 279.507812 127.878906 C 279.109375 129.679688 278.707031 131.480469 278.296875 133.332031 C 277.898438 133.332031 277.5 133.332031 277.085938 133.332031 C 277 133.808594 276.914062 134.285156 276.824219 134.773438 C 276.480469 136.363281 276.480469 136.363281 275.878906 137.574219 C 275.476562 137.574219 275.078125 137.574219 274.667969 137.574219 C 274.46875 138.574219 274.269531 139.574219 274.0625 140.605469 C 273.664062 140.605469 273.265625 140.605469 272.851562 140.605469 C 272.714844 141.011719 272.578125 141.417969 272.433594 141.835938 C 271.421875 144.140625 270.074219 146.109375 268.65625 148.183594 C 268.121094 148.96875 267.585938 149.757812 267.050781 150.550781 C 266.796875 150.921875 266.546875 151.292969 266.285156 151.671875 C 265.675781 152.601562 265.117188 153.5625 264.570312 154.527344 C 264.308594 154.933594 264.046875 155.339844 263.777344 155.757812 C 263.378906 155.757812 262.980469 155.757812 262.566406 155.757812 C 262.429688 156.171875 262.292969 156.582031 262.152344 157.007812 C 261.371094 158.757812 260.382812 160.101562 259.246094 161.628906 C 257.21875 164.742188 255.703125 168.171875 254.097656 171.515625 C 253.699219 171.515625 253.300781 171.515625 252.886719 171.515625 C 252.8125 171.855469 252.738281 172.195312 252.660156 172.546875 C 252.113281 174.5625 251.257812 176.429688 250.429688 178.34375 C 248.269531 184.652344 248.242188 193.320312 251.074219 199.394531 C 251.371094 200.082031 251.671875 200.769531 251.980469 201.476562 C 252.820312 203.179688 252.820312 203.179688 254.703125 204.242188 C 254.703125 204.640625 254.703125 205.042969 254.703125 205.453125 C 255.171875 205.566406 255.171875 205.566406 255.648438 205.683594 C 257.121094 206.0625 257.121094 206.0625 258.863281 206.703125 C 263.207031 207.964844 268.769531 208.097656 272.851562 206.0625 C 275.769531 204.234375 277.878906 202.476562 279.507812 199.394531 C 279.90625 199.394531 280.304688 199.394531 280.71875 199.394531 C 281.324219 195.863281 281.414062 192.441406 281.398438 188.863281 C 281.398438 188.320312 281.402344 187.777344 281.40625 187.21875 C 281.398438 183.757812 281.15625 180.40625 280.71875 176.96875 C 280.316406 176.96875 279.917969 176.96875 279.507812 176.96875 C 279.113281 176.113281 278.722656 175.253906 278.335938 174.394531 C 278.117188 173.914062 277.898438 173.4375 277.675781 172.945312 C 277.148438 171.660156 276.777344 170.445312 276.480469 169.089844 C 276.082031 169.089844 275.683594 169.089844 275.273438 169.089844 C 274.875 167.691406 274.472656 166.289062 274.0625 164.847656 C 276.484375 165.65625 276.941406 166.988281 278.296875 169.089844 C 278.695312 169.289062 279.097656 169.492188 279.507812 169.695312 C 279.957031 170.953125 279.957031 170.953125 280.378906 172.539062 C 280.910156 174.445312 281.4375 175.988281 282.34375 177.765625 C 283.183594 179.488281 283.304688 180.535156 283.136719 182.425781 C 283.535156 182.425781 283.9375 182.425781 284.347656 182.425781 C 285.039062 190.03125 285.125 195.070312 281.324219 201.816406 C 281.058594 202.335938 280.792969 202.855469 280.519531 203.390625 C 279.289062 205.164062 278.121094 205.855469 276.21875 206.855469 C 275.644531 207.167969 275.070312 207.476562 274.480469 207.796875 C 272.851562 208.484375 272.851562 208.484375 270.433594 208.484375 C 270.433594 208.886719 270.433594 209.285156 270.433594 209.695312 C 268.351562 209.714844 266.273438 209.726562 264.195312 209.734375 C 263.601562 209.738281 263.011719 209.746094 262.402344 209.75 C 261.550781 209.753906 261.550781 209.753906 260.683594 209.757812 C 259.898438 209.761719 259.898438 209.761719 259.101562 209.765625 C 257.726562 209.695312 257.726562 209.695312 255.914062 209.089844 C 255.914062 208.691406 255.914062 208.289062 255.914062 207.878906 C 255.386719 207.753906 254.863281 207.628906 254.324219 207.5 C 251.890625 206.507812 250.191406 205.175781 248.652344 203.03125 C 248.652344 202.429688 248.652344 201.832031 248.652344 201.210938 C 248.253906 201.210938 247.855469 201.210938 247.441406 201.210938 C 243.480469 193.964844 244.59375 185.6875 246.742188 178.019531 C 247.625 175.171875 248.636719 172.414062 249.863281 169.695312 C 250.261719 169.695312 250.660156 169.695312 251.074219 169.695312 C 251.234375 169.171875 251.398438 168.648438 251.5625 168.105469 C 252.519531 165.386719 253.710938 163.003906 255.308594 160.605469 C 255.707031 160.605469 256.105469 160.605469 256.519531 160.605469 C 256.679688 160.070312 256.839844 159.535156 257.007812 158.980469 C 258.910156 153.671875 262.769531 149.175781 266.144531 144.730469 C 268.09375 142.105469 269.996094 139.488281 271.039062 136.363281 C 271.4375 136.363281 271.835938 136.363281 272.246094 136.363281 C 272.410156 135.945312 272.570312 135.527344 272.738281 135.097656 C 273.824219 132.4375 275.0625 129.851562 276.277344 127.25 C 277.113281 125.476562 277.113281 125.476562 277.691406 123.636719 C 278.089844 123.636719 278.492188 123.636719 278.902344 123.636719 C 279.203125 120.636719 279.203125 120.636719 279.507812 117.574219 C 279.90625 117.574219 280.304688 117.574219 280.71875 117.574219 C 280.71875 113.976562 280.71875 110.375 280.71875 106.667969 C 280.316406 106.667969 279.917969 106.667969 279.507812 106.667969 C 279.445312 106.242188 279.386719 105.816406 279.324219 105.378906 C 278.429688 100.863281 276.878906 98.808594 273.199219 96.097656 C 268.984375 93.535156 265 93.40625 260.148438 93.9375 C 258.242188 94.589844 256.542969 95.359375 254.769531 96.308594 C 253.492188 96.96875 253.492188 96.96875 252.28125 96.96875 C 252.234375 97.34375 252.183594 97.71875 252.132812 98.105469 C 251.980469 98.53125 251.832031 98.957031 251.675781 99.394531 C 251.277344 99.582031 250.878906 99.769531 250.46875 99.960938 C 250.066406 100.175781 249.667969 100.386719 249.257812 100.605469 C 248.765625 102.15625 248.765625 102.15625 248.652344 103.636719 C 248.253906 103.636719 247.855469 103.636719 247.441406 103.636719 C 247.242188 108.636719 247.042969 113.636719 246.835938 118.789062 C 247.238281 118.789062 247.636719 118.789062 248.046875 118.789062 C 248.148438 119.316406 248.148438 119.316406 248.25 119.851562 C 248.847656 122.804688 249.667969 125.191406 251.074219 127.878906 C 251.074219 128.480469 251.074219 129.078125 251.074219 129.695312 C 251.472656 129.695312 251.871094 129.695312 252.28125 129.695312 C 252.789062 130.679688 253.292969 131.664062 253.796875 132.652344 C 254.074219 133.199219 254.355469 133.75 254.644531 134.3125 C 255.308594 135.757812 255.308594 135.757812 255.308594 136.96875 C 254.910156 136.96875 254.507812 136.96875 254.097656 136.96875 C 252.28125 134.871094 252.28125 134.871094 252.28125 133.332031 C 251.882812 133.332031 251.484375 133.332031 251.074219 133.332031 C 249.800781 130.9375 248.601562 128.511719 247.441406 126.0625 C 247.183594 125.527344 246.929688 124.996094 246.664062 124.449219 C 244.105469 118.191406 243.75 108.96875 245.628906 102.425781 C 246.027344 102.425781 246.425781 102.425781 246.835938 102.425781 C 247.039062 101.425781 247.238281 100.425781 247.441406 99.394531 C 247.84375 99.394531 248.242188 99.394531 248.652344 99.394531 C 248.695312 99.035156 248.742188 98.675781 248.789062 98.304688 C 249.425781 96.492188 250.339844 96.015625 251.941406 95 C 252.429688 94.683594 252.914062 94.367188 253.414062 94.042969 C 254.703125 93.332031 254.703125 93.332031 255.914062 93.332031 C 255.914062 92.933594 255.914062 92.535156 255.914062 92.121094 C 261.191406 90.859375 266.503906 89.882812 271.640625 92.121094 Z M 271.640625 92.121094 "/>
<path style=" stroke:none;fill-rule:nonzero;fill:rgb(89.803922%,89.803922%,89.803922%);fill-opacity:1;" d="M 274.0625 164.847656 C 276.484375 165.65625 276.941406 166.988281 278.296875 169.089844 C 278.695312 169.289062 279.097656 169.492188 279.507812 169.695312 C 279.957031 170.953125 279.957031 170.953125 280.378906 172.539062 C 280.910156 174.445312 281.4375 175.988281 282.34375 177.765625 C 283.183594 179.488281 283.304688 180.535156 283.136719 182.425781 C 283.535156 182.425781 283.9375 182.425781 284.347656 182.425781 C 285.039062 190.03125 285.125 195.070312 281.324219 201.816406 C 281.058594 202.335938 280.792969 202.855469 280.519531 203.390625 C 279.289062 205.164062 278.121094 205.855469 276.21875 206.855469 C 275.644531 207.167969 275.070312 207.476562 274.480469 207.796875 C 272.851562 208.484375 272.851562 208.484375 270.433594 208.484375 C 270.433594 208.886719 270.433594 209.285156 270.433594 209.695312 C 268.351562 209.714844 266.273438 209.726562 264.195312 209.734375 C 263.601562 209.738281 263.011719 209.746094 262.402344 209.75 C 261.835938 209.753906 261.269531 209.753906 260.683594 209.757812 C 260.160156 209.757812 259.636719 209.761719 259.101562 209.765625 C 257.726562 209.695312 257.726562 209.695312 255.914062 209.089844 C 255.914062 208.691406 255.914062 208.289062 255.914062 207.878906 C 255.386719 207.753906 254.863281 207.628906 254.324219 207.5 C 251.890625 206.507812 250.191406 205.175781 248.652344 203.03125 C 248.652344 202.429688 248.652344 201.832031 248.652344 201.210938 C 248.253906 201.210938 247.855469 201.210938 247.441406 201.210938 C 244.503906 195.839844 243.921875 188.730469 245.628906 182.804688 C 245.828125 182.277344 246.027344 181.753906 246.234375 181.210938 C 247.027344 182.800781 246.773438 183.777344 246.574219 185.53125 C 246.480469 186.359375 246.480469 186.359375 246.386719 187.203125 C 246.335938 187.625 246.285156 188.046875 246.234375 188.484375 C 246.632812 188.484375 247.03125 188.484375 247.441406 188.484375 C 247.515625 187.699219 247.59375 186.910156 247.667969 186.097656 C 247.796875 184.757812 247.796875 184.757812 248.046875 183.636719 C 248.445312 183.4375 248.847656 183.238281 249.257812 183.03125 C 249.238281 183.753906 249.214844 184.480469 249.195312 185.226562 C 248.972656 192.507812 248.972656 192.507812 251.074219 199.394531 C 251.523438 200.425781 251.523438 200.425781 251.980469 201.476562 C 252.820312 203.179688 252.820312 203.179688 254.703125 204.242188 C 254.703125 204.640625 254.703125 205.042969 254.703125 205.453125 C 255.171875 205.566406 255.171875 205.566406 255.648438 205.683594 C 257.121094 206.0625 257.121094 206.0625 258.863281 206.703125 C 263.207031 207.964844 268.769531 208.097656 272.851562 206.0625 C 275.769531 204.234375 277.878906 202.476562 279.507812 199.394531 C 279.90625 199.394531 280.304688 199.394531 280.71875 199.394531 C 281.324219 195.863281 281.414062 192.441406 281.398438 188.863281 C 281.398438 188.320312 281.402344 187.777344 281.40625 187.21875 C 281.398438 183.757812 281.15625 180.40625 280.71875 176.96875 C 280.316406 176.96875 279.917969 176.96875 279.507812 176.96875 C 279.113281 176.113281 278.722656 175.253906 278.335938 174.394531 C 278.007812 173.675781 278.007812 173.675781 277.675781 172.945312 C 277.148438 171.660156 276.777344 170.445312 276.480469 169.089844 C 276.082031 169.089844 275.683594 169.089844 275.273438 169.089844 C 274.875 167.691406 274.472656 166.289062 274.0625 164.847656 Z M 274.0625 164.847656 "/>
<path style=" stroke:none;fill-rule:nonzero;fill:rgb(83.92157%,83.92157%,83.92157%);fill-opacity:1;" d="M 255.914062 92.121094 C 256.425781 92.21875 256.9375 92.320312 257.46875 92.421875 C 259.582031 92.734375 261.566406 92.785156 263.703125 92.765625 C 264.398438 92.757812 265.097656 92.753906 265.816406 92.75 C 266.601562 92.738281 266.601562 92.738281 267.40625 92.726562 C 267.40625 92.925781 267.40625 93.128906 267.40625 93.332031 C 266.960938 93.34375 266.515625 93.351562 266.054688 93.359375 C 261.792969 93.558594 258.609375 94.378906 254.8125 96.328125 C 253.492188 96.96875 253.492188 96.96875 252.28125 96.96875 C 252.234375 97.34375 252.183594 97.71875 252.132812 98.105469 C 251.980469 98.53125 251.832031 98.957031 251.675781 99.394531 C 251.277344 99.582031 250.878906 99.769531 250.46875 99.960938 C 250.066406 100.175781 249.667969 100.386719 249.257812 100.605469 C 248.765625 102.15625 248.765625 102.15625 248.652344 103.636719 C 248.253906 103.636719 247.855469 103.636719 247.441406 103.636719 C 247.242188 108.636719 247.042969 113.636719 246.835938 118.789062 C 247.238281 118.789062 247.636719 118.789062 248.046875 118.789062 C 248.148438 119.316406 248.148438 119.316406 248.25 119.851562 C 248.847656 122.804688 249.667969 125.191406 251.074219 127.878906 C 251.074219 128.480469 251.074219 129.078125 251.074219 129.695312 C 251.472656 129.695312 251.871094 129.695312 252.28125 129.695312 C 252.789062 130.679688 253.292969 131.664062 253.796875 132.652344 C 254.074219 133.199219 254.355469 133.75 254.644531 134.3125 C 255.308594 135.757812 255.308594 135.757812 255.308594 136.96875 C 254.910156 136.96875 254.507812 136.96875 254.097656 136.96875 C 252.28125 134.871094 252.28125 134.871094 252.28125 133.332031 C 251.882812 133.332031 251.484375 133.332031 251.074219 133.332031 C 249.800781 130.9375 248.601562 128.511719 247.441406 126.0625 C 247.183594 125.527344 246.929688 124.996094 246.664062 124.449219 C 244.105469 118.191406 243.75 108.96875 245.628906 102.425781 C 246.027344 102.425781 246.425781 102.425781 246.835938 102.425781 C 247.039062 101.425781 247.238281 100.425781 247.441406 99.394531 C 247.84375 99.394531 248.242188 99.394531 248.652344 99.394531 C 248.695312 99.035156 248.742188 98.675781 248.789062 98.304688 C 249.425781 96.492188 250.339844 96.015625 251.941406 95 C 252.429688 94.683594 252.914062 94.367188 253.414062 94.042969 C 254.703125 93.332031 254.703125 93.332031 255.914062 93.332031 C 255.914062 92.933594 255.914062 92.535156 255.914062 92.121094 Z M 255.914062 92.121094 "/>
<path style=" stroke:none;fill-rule:nonzero;fill:rgb(87.450981%,87.450981%,87.450981%);fill-opacity:1;" d="M 271.640625 92.121094 C 272.019531 92.285156 272.398438 92.445312 272.789062 92.613281 C 275.777344 93.988281 278.578125 95.640625 280.71875 98.183594 C 281.285156 100.226562 281.285156 100.226562 281.324219 101.816406 C 281.722656 101.816406 282.121094 101.816406 282.53125 101.816406 C 283.910156 106.6875 283.910156 106.6875 283.136719 109.089844 C 282.738281 108.890625 282.339844 108.691406 281.925781 108.484375 C 281.90625 109.15625 281.882812 109.828125 281.859375 110.519531 C 281.820312 111.40625 281.777344 112.292969 281.738281 113.183594 C 281.726562 113.625 281.710938 114.066406 281.695312 114.523438 C 281.570312 117.09375 281.339844 118.734375 279.507812 120.605469 C 279.507812 119.605469 279.507812 118.605469 279.507812 117.574219 C 279.90625 117.574219 280.304688 117.574219 280.71875 117.574219 C 280.71875 113.976562 280.71875 110.375 280.71875 106.667969 C 280.316406 106.667969 279.917969 106.667969 279.507812 106.667969 C 279.445312 106.242188 279.386719 105.816406 279.324219 105.378906 C 278.441406 100.921875 276.9375 98.847656 273.316406 96.15625 C 269.539062 93.886719 266.621094 93.066406 262.304688 93.21875 C 261.640625 93.230469 261.640625 93.230469 260.960938 93.246094 C 259.882812 93.265625 258.804688 93.296875 257.726562 93.332031 C 257.925781 92.734375 258.125 92.132812 258.332031 91.515625 C 262.796875 90.574219 267.394531 90.269531 271.640625 92.121094 Z M 271.640625 92.121094 "/>
<path style=" stroke:none;fill-rule:nonzero;fill:rgb(81.176472%,81.176472%,81.176472%);fill-opacity:1;" d="M 274.0625 164.847656 C 276.484375 165.65625 276.941406 166.988281 278.296875 169.089844 C 278.695312 169.289062 279.097656 169.492188 279.507812 169.695312 C 279.957031 170.953125 279.957031 170.953125 280.378906 172.539062 C 280.910156 174.445312 281.4375 175.988281 282.34375 177.765625 C 283.183594 179.488281 283.304688 180.535156 283.136719 182.425781 C 283.535156 182.425781 283.9375 182.425781 284.347656 182.425781 C 285.609375 196.257812 285.609375 196.257812 281.324219 201.816406 C 279.707031 202.292969 279.707031 202.292969 278.296875 202.425781 C 278.695312 201.425781 279.097656 200.425781 279.507812 199.394531 C 279.90625 199.394531 280.304688 199.394531 280.71875 199.394531 C 281.324219 195.863281 281.414062 192.441406 281.398438 188.863281 C 281.398438 188.320312 281.402344 187.777344 281.40625 187.21875 C 281.398438 183.757812 281.15625 180.40625 280.71875 176.96875 C 280.316406 176.96875 279.917969 176.96875 279.507812 176.96875 C 279.113281 176.113281 278.722656 175.253906 278.335938 174.394531 C 278.117188 173.914062 277.898438 173.4375 277.675781 172.945312 C 277.148438 171.660156 276.777344 170.445312 276.480469 169.089844 C 276.082031 169.089844 275.683594 169.089844 275.273438 169.089844 C 274.875 167.691406 274.472656 166.289062 274.0625 164.847656 Z M 274.0625 164.847656 "/>
<path style=" stroke:none;fill-rule:nonzero;fill:rgb(84.313726%,84.313726%,84.313726%);fill-opacity:1;" d="M 246.234375 181.210938 C 247.027344 182.800781 246.773438 183.777344 246.574219 185.53125 C 246.511719 186.082031 246.449219 186.632812 246.386719 187.203125 C 246.308594 187.835938 246.308594 187.835938 246.234375 188.484375 C 246.632812 188.484375 247.03125 188.484375 247.441406 188.484375 C 247.515625 187.699219 247.59375 186.910156 247.667969 186.097656 C 247.796875 184.757812 247.796875 184.757812 248.046875 183.636719 C 248.445312 183.4375 248.847656 183.238281 249.257812 183.03125 C 249.238281 183.753906 249.214844 184.480469 249.195312 185.226562 C 249.089844 190.339844 249.058594 194.605469 251.074219 199.394531 C 251.074219 199.992188 251.074219 200.59375 251.074219 201.210938 C 250.671875 201.210938 250.273438 201.210938 249.863281 201.210938 C 249.664062 202.011719 249.464844 202.8125 249.257812 203.636719 C 249.058594 202.835938 248.859375 202.035156 248.652344 201.210938 C 248.253906 201.210938 247.855469 201.210938 247.441406 201.210938 C 244.503906 195.839844 243.921875 188.730469 245.628906 182.804688 C 245.828125 182.277344 246.027344 181.753906 246.234375 181.210938 Z M 246.234375 181.210938 "/>
<path style=" stroke:none;fill-rule:nonzero;fill:rgb(92.941177%,92.941177%,92.941177%);fill-opacity:1;" d="M 281.925781 108.484375 C 282.527344 108.683594 283.125 108.886719 283.742188 109.089844 C 283.933594 113.851562 283.351562 118.34375 282.53125 123.03125 C 282.132812 123.03125 281.734375 123.03125 281.324219 123.03125 C 281.121094 124.628906 280.921875 126.230469 280.71875 127.878906 C 280.316406 127.878906 279.917969 127.878906 279.507812 127.878906 C 279.308594 129.078125 279.109375 130.277344 278.902344 131.515625 C 277.703125 131.816406 277.703125 131.816406 276.480469 132.121094 C 276.183594 131.222656 276.183594 131.222656 275.878906 130.304688 C 276.277344 130.304688 276.675781 130.304688 277.085938 130.304688 C 277.152344 129.878906 277.21875 129.453125 277.289062 129.015625 C 278.769531 120.132812 278.769531 120.132812 280.71875 118.183594 C 280.84375 116.78125 280.941406 115.378906 281.019531 113.976562 C 281.253906 109.832031 281.253906 109.832031 281.925781 108.484375 Z M 281.925781 108.484375 "/>
<path style=" stroke:none;fill-rule:nonzero;fill:rgb(85.882354%,85.882354%,85.882354%);fill-opacity:1;" d="M 277.691406 123.636719 C 278.660156 126.0625 277.871094 127.90625 277.085938 130.304688 C 276.6875 130.304688 276.289062 130.304688 275.878906 130.304688 C 276.078125 130.703125 276.277344 131.101562 276.480469 131.515625 C 277.082031 131.515625 277.679688 131.515625 278.296875 131.515625 C 278.296875 132.113281 278.296875 132.714844 278.296875 133.332031 C 277.898438 133.332031 277.5 133.332031 277.085938 133.332031 C 277 133.808594 276.914062 134.285156 276.824219 134.773438 C 276.480469 136.363281 276.480469 136.363281 275.878906 137.574219 C 275.476562 137.574219 275.078125 137.574219 274.667969 137.574219 C 274.46875 138.574219 274.269531 139.574219 274.0625 140.605469 C 273.664062 140.605469 273.265625 140.605469 272.851562 140.605469 C 272.253906 142.105469 272.253906 142.105469 271.640625 143.636719 C 271.042969 143.238281 270.445312 142.835938 269.828125 142.425781 C 269.429688 142.425781 269.027344 142.425781 268.617188 142.425781 C 269.289062 140.3125 269.988281 138.316406 271.039062 136.363281 C 271.4375 136.363281 271.835938 136.363281 272.246094 136.363281 C 272.410156 135.945312 272.570312 135.527344 272.738281 135.097656 C 273.824219 132.4375 275.0625 129.851562 276.277344 127.25 C 277.113281 125.476562 277.113281 125.476562 277.691406 123.636719 Z M 277.691406 123.636719 "/>
<path style=" stroke:none;fill-rule:nonzero;fill:rgb(88.235295%,88.235295%,88.235295%);fill-opacity:1;" d="M 268.011719 141.816406 C 269.011719 142.019531 270.007812 142.21875 271.039062 142.425781 C 270.710938 145.222656 269.5625 146.984375 267.976562 149.28125 C 267.53125 149.929688 267.085938 150.574219 266.628906 151.242188 C 266.289062 151.734375 265.945312 152.222656 265.59375 152.726562 C 264.382812 150.910156 264.382812 150.910156 264.382812 149.695312 C 263.984375 149.695312 263.582031 149.695312 263.171875 149.695312 C 262.972656 150.695312 262.773438 151.695312 262.566406 152.726562 C 262.167969 152.726562 261.769531 152.726562 261.359375 152.726562 C 262.078125 149.527344 263.609375 147.726562 265.800781 145.410156 C 266.785156 144.261719 267.402344 143.195312 268.011719 141.816406 Z M 268.011719 141.816406 "/>
<path style=" stroke:none;fill-rule:nonzero;fill:rgb(74.509805%,74.509805%,74.509805%);fill-opacity:1;" d="M 255.914062 92.121094 C 256.425781 92.21875 256.9375 92.320312 257.46875 92.421875 C 259.582031 92.734375 261.566406 92.785156 263.703125 92.765625 C 264.398438 92.757812 265.097656 92.753906 265.816406 92.75 C 266.601562 92.738281 266.601562 92.738281 267.40625 92.726562 C 267.40625 92.925781 267.40625 93.128906 267.40625 93.332031 C 266.960938 93.34375 266.515625 93.351562 266.054688 93.359375 C 261.792969 93.558594 258.609375 94.378906 254.8125 96.328125 C 253.492188 96.96875 253.492188 96.96875 252.28125 96.96875 C 252.234375 97.34375 252.183594 97.71875 252.132812 98.105469 C 251.980469 98.53125 251.832031 98.957031 251.675781 99.394531 C 251.277344 99.582031 250.878906 99.769531 250.46875 99.960938 C 250.066406 100.175781 249.667969 100.386719 249.257812 100.605469 C 248.765625 102.15625 248.765625 102.15625 248.652344 103.636719 C 248.453125 103.035156 248.253906 102.4375 248.046875 101.816406 C 247.648438 101.816406 247.25 101.816406 246.835938 101.816406 C 247.039062 101.019531 247.238281 100.21875 247.441406 99.394531 C 247.84375 99.394531 248.242188 99.394531 248.652344 99.394531 C 248.695312 99.035156 248.742188 98.675781 248.789062 98.304688 C 249.425781 96.492188 250.339844 96.015625 251.941406 95 C 252.429688 94.683594 252.914062 94.367188 253.414062 94.042969 C 254.703125 93.332031 254.703125 93.332031 255.914062 93.332031 C 255.914062 92.933594 255.914062 92.535156 255.914062 92.121094 Z M 255.914062 92.121094 "/>
<path style=" stroke:none;fill-rule:nonzero;fill:rgb(76.47059%,76.47059%,76.47059%);fill-opacity:1;" d="M 274.0625 164.847656 C 276.484375 165.65625 276.941406 166.988281 278.296875 169.089844 C 278.695312 169.289062 279.097656 169.492188 279.507812 169.695312 C 279.957031 170.953125 279.957031 170.953125 280.378906 172.539062 C 280.917969 174.492188 281.4375 175.96875 282.417969 177.765625 C 283.136719 179.394531 283.136719 179.394531 282.644531 181.136719 C 282.410156 181.5625 282.171875 181.988281 281.925781 182.425781 C 281.726562 182.425781 281.527344 182.425781 281.324219 182.425781 C 281.121094 180.625 280.921875 178.824219 280.71875 176.96875 C 280.316406 176.96875 279.917969 176.96875 279.507812 176.96875 C 279.113281 176.113281 278.722656 175.253906 278.335938 174.394531 C 278.117188 173.914062 277.898438 173.4375 277.675781 172.945312 C 277.148438 171.660156 276.777344 170.445312 276.480469 169.089844 C 276.082031 169.089844 275.683594 169.089844 275.273438 169.089844 C 274.875 167.691406 274.472656 166.289062 274.0625 164.847656 Z M 274.0625 164.847656 "/>
<path style=" stroke:none;fill-rule:nonzero;fill:rgb(97.254902%,97.254902%,97.254902%);fill-opacity:1;" d="M 249.257812 173.9375 C 249.65625 174.339844 250.054688 174.738281 250.46875 175.152344 C 250.292969 179.746094 248.761719 184.113281 247.441406 188.484375 C 247.042969 188.484375 246.644531 188.484375 246.234375 188.484375 C 246.097656 184.78125 246.226562 181.691406 247.441406 178.183594 C 247.640625 177.582031 247.84375 176.980469 248.046875 176.363281 C 248.445312 176.363281 248.847656 176.363281 249.257812 176.363281 C 249.257812 175.5625 249.257812 174.761719 249.257812 173.9375 Z M 249.257812 173.9375 "/>
<path style=" stroke:none;fill-rule:nonzero;fill:rgb(72.941178%,72.941178%,72.941178%);fill-opacity:1;" d="M 248.046875 122.425781 C 249.898438 124.699219 251.074219 126.714844 251.074219 129.695312 C 251.472656 129.695312 251.871094 129.695312 252.28125 129.695312 C 252.789062 130.679688 253.292969 131.664062 253.796875 132.652344 C 254.074219 133.199219 254.355469 133.75 254.644531 134.3125 C 255.308594 135.757812 255.308594 135.757812 255.308594 136.96875 C 254.910156 136.96875 254.507812 136.96875 254.097656 136.96875 C 252.28125 134.871094 252.28125 134.871094 252.28125 133.332031 C 251.882812 133.332031 251.484375 133.332031 251.074219 133.332031 C 250.441406 132.203125 249.828125 131.066406 249.21875 129.925781 C 248.875 129.292969 248.53125 128.660156 248.175781 128.007812 C 247.351562 125.816406 247.460938 124.660156 248.046875 122.425781 Z M 248.046875 122.425781 "/>
<path style=" stroke:none;fill-rule:nonzero;fill:rgb(60.784316%,60.784316%,60.784316%);fill-opacity:1;" d="M 281.925781 182.425781 C 282.128906 182.425781 282.328125 182.425781 282.53125 182.425781 C 282.578125 184.894531 282.609375 187.363281 282.632812 189.832031 C 282.640625 190.671875 282.652344 191.515625 282.667969 192.355469 C 282.691406 193.5625 282.699219 194.769531 282.710938 195.976562 C 282.71875 196.703125 282.730469 197.429688 282.738281 198.179688 C 282.53125 200 282.53125 200 281.695312 201.132812 C 280.578125 201.914062 279.632812 202.191406 278.296875 202.425781 C 278.695312 201.425781 279.097656 200.425781 279.507812 199.394531 C 279.90625 199.394531 280.304688 199.394531 280.71875 199.394531 C 281.3125 195.773438 281.511719 192.183594 281.664062 188.523438 C 281.6875 187.933594 281.714844 187.347656 281.742188 186.742188 C 281.804688 185.300781 281.867188 183.863281 281.925781 182.425781 Z M 281.925781 182.425781 "/>
<path style=" stroke:none;fill-rule:nonzero;fill:rgb(81.960785%,81.960785%,81.960785%);fill-opacity:1;" d="M 277.691406 123.636719 C 278.488281 126.15625 277.902344 127.8125 277.085938 130.304688 C 276.6875 130.304688 276.289062 130.304688 275.878906 130.304688 C 276.078125 130.703125 276.277344 131.101562 276.480469 131.515625 C 277.082031 131.515625 277.679688 131.515625 278.296875 131.515625 C 278.296875 132.113281 278.296875 132.714844 278.296875 133.332031 C 277.898438 133.332031 277.5 133.332031 277.085938 133.332031 C 276.976562 134.046875 276.976562 134.046875 276.859375 134.773438 C 276.480469 136.363281 276.480469 136.363281 275.273438 137.574219 C 275.472656 136.375 275.671875 135.175781 275.878906 133.9375 C 275.277344 133.738281 274.679688 133.539062 274.0625 133.332031 C 274.933594 129.917969 276.203125 126.828125 277.691406 123.636719 Z M 277.691406 123.636719 "/>
<path style=" stroke:none;fill-rule:nonzero;fill:rgb(94.509804%,94.509804%,94.509804%);fill-opacity:1;" d="M 263.171875 149.695312 C 263.570312 149.695312 263.972656 149.695312 264.382812 149.695312 C 265.128906 152.980469 265.128906 152.980469 264.421875 154.773438 C 264.207031 155.097656 263.996094 155.421875 263.777344 155.757812 C 263.378906 155.757812 262.980469 155.757812 262.566406 155.757812 C 262.367188 156.15625 262.167969 156.558594 261.960938 156.96875 C 261.363281 156.570312 260.765625 156.167969 260.148438 155.757812 C 260.546875 154.757812 260.945312 153.757812 261.359375 152.726562 C 261.757812 152.726562 262.15625 152.726562 262.566406 152.726562 C 262.765625 151.726562 262.96875 150.726562 263.171875 149.695312 Z M 263.171875 149.695312 "/>
<path style=" stroke:none;fill-rule:nonzero;fill:rgb(92.941177%,92.941177%,92.941177%);fill-opacity:1;" d="M 249.257812 200 C 251.84375 200.960938 253.046875 202.730469 254.703125 204.847656 C 254.105469 205.75 254.105469 205.75 253.492188 206.667969 C 251.175781 205.785156 250.3125 204.648438 249.257812 202.425781 C 249.257812 201.625 249.257812 200.824219 249.257812 200 Z M 249.257812 200 "/>
<path style=" stroke:none;fill-rule:nonzero;fill:rgb(78.431374%,78.431374%,78.431374%);fill-opacity:1;" d="M 280.113281 200.605469 C 280.71875 202.425781 280.71875 202.425781 280.339844 203.636719 C 279.238281 205.242188 278.25 205.863281 276.480469 206.667969 C 274.476562 206.78125 274.476562 206.78125 272.851562 206.667969 C 274.09375 205.371094 275.367188 204.269531 276.824219 203.21875 C 277.367188 202.824219 277.367188 202.824219 277.921875 202.417969 C 278.902344 201.816406 278.902344 201.816406 280.113281 201.816406 C 280.113281 201.417969 280.113281 201.019531 280.113281 200.605469 Z M 280.113281 200.605469 "/>
<path style=" stroke:none;fill-rule:nonzero;fill:rgb(58.823532%,58.823532%,58.823532%);fill-opacity:1;" d="M 274.0625 164.847656 C 276.484375 165.65625 276.941406 166.988281 278.296875 169.089844 C 278.695312 169.289062 279.097656 169.492188 279.507812 169.695312 C 279.28125 170.871094 279.28125 170.871094 278.902344 172.121094 C 278.304688 172.421875 278.304688 172.421875 277.691406 172.726562 C 276.480469 170.910156 276.480469 170.910156 276.480469 169.089844 C 276.082031 169.089844 275.683594 169.089844 275.273438 169.089844 C 274.875 167.691406 274.472656 166.289062 274.0625 164.847656 Z M 274.0625 164.847656 "/>
<path style=" stroke:none;fill-rule:nonzero;fill:rgb(94.509804%,94.509804%,94.509804%);fill-opacity:1;" d="M 257.726562 163.03125 C 257.355469 164.824219 256.96875 165.683594 255.914062 167.273438 C 255.511719 167.273438 255.113281 167.273438 254.703125 167.273438 C 254.703125 167.671875 254.703125 168.074219 254.703125 168.484375 C 254.304688 168.285156 253.902344 168.085938 253.492188 167.878906 C 253.644531 165.832031 253.644531 165.832031 254.097656 163.636719 C 255.574219 162.492188 256.027344 162.179688 257.726562 163.03125 Z M 257.726562 163.03125 "/>
<path style=" stroke:none;fill-rule:nonzero;fill:rgb(84.313726%,84.313726%,84.313726%);fill-opacity:1;" d="M 260.753906 152.726562 C 260.753906 153.328125 260.753906 153.925781 260.753906 154.546875 C 260.953125 154.945312 261.152344 155.34375 261.359375 155.757812 C 261.773438 156.96875 261.773438 156.96875 261.960938 158.183594 C 261.5625 158.582031 261.164062 158.980469 260.753906 159.394531 C 260.152344 159.195312 259.554688 158.992188 258.9375 158.789062 C 259.136719 158.386719 259.335938 157.988281 259.542969 157.574219 C 258.945312 157.777344 258.34375 157.976562 257.726562 158.183594 C 258.484375 156.085938 259.347656 154.457031 260.753906 152.726562 Z M 260.753906 152.726562 "/>
<path style=" stroke:none;fill-rule:nonzero;fill:rgb(55.29412%,55.29412%,55.29412%);fill-opacity:1;" d="M 251.675781 129.695312 C 253.824219 132.0625 254.59375 133.925781 255.308594 136.96875 C 254.910156 136.96875 254.507812 136.96875 254.097656 136.96875 C 252.28125 134.871094 252.28125 134.871094 252.28125 133.332031 C 251.882812 133.332031 251.484375 133.332031 251.074219 133.332031 C 250.671875 132.332031 250.273438 131.332031 249.863281 130.304688 C 250.460938 130.503906 251.058594 130.703125 251.675781 130.910156 C 251.675781 130.507812 251.675781 130.109375 251.675781 129.695312 Z M 251.675781 129.695312 "/>
<path style=" stroke:none;fill-rule:nonzero;fill:rgb(94.117647%,94.117647%,94.117647%);fill-opacity:1;" d="M 249.257812 173.9375 C 249.65625 174.339844 250.054688 174.738281 250.46875 175.152344 C 250.449219 176.804688 250.125 178.363281 249.863281 180 C 249.265625 180 248.664062 180 248.046875 180 C 247.648438 180.398438 247.25 180.800781 246.835938 181.210938 C 247.152344 179.539062 247.507812 177.984375 248.046875 176.363281 C 248.445312 176.363281 248.847656 176.363281 249.257812 176.363281 C 249.257812 175.5625 249.257812 174.761719 249.257812 173.9375 Z M 249.257812 173.9375 "/>
<path style=" stroke:none;fill-rule:nonzero;fill:rgb(96.078432%,96.078432%,96.078432%);fill-opacity:1;" d="M 277.691406 126.0625 C 278.292969 126.460938 278.890625 126.859375 279.507812 127.273438 C 279.308594 128.671875 279.109375 130.074219 278.902344 131.515625 C 278.105469 131.714844 277.304688 131.914062 276.480469 132.121094 C 276.28125 131.519531 276.082031 130.921875 275.878906 130.304688 C 276.277344 130.304688 276.675781 130.304688 277.085938 130.304688 C 277.285156 128.902344 277.488281 127.503906 277.691406 126.0625 Z M 277.691406 126.0625 "/>
<path style=" stroke:none;fill-rule:nonzero;fill:rgb(58.823532%,58.823532%,58.823532%);fill-opacity:1;" d="M 249.257812 96.96875 C 249.65625 97.167969 250.054688 97.371094 250.46875 97.574219 C 250.46875 97.976562 250.46875 98.375 250.46875 98.789062 C 251.066406 98.789062 251.664062 98.789062 252.28125 98.789062 C 251.449219 99.695312 251.449219 99.695312 250.46875 100.605469 C 250.066406 100.605469 249.667969 100.605469 249.257812 100.605469 C 249.058594 101.605469 248.859375 102.605469 248.652344 103.636719 C 248.453125 103.035156 248.253906 102.4375 248.046875 101.816406 C 247.648438 101.816406 247.25 101.816406 246.835938 101.816406 C 247.039062 101.019531 247.238281 100.21875 247.441406 99.394531 C 247.84375 99.394531 248.242188 99.394531 248.652344 99.394531 C 248.851562 98.59375 249.050781 97.792969 249.257812 96.96875 Z M 249.257812 96.96875 "/>
<path style=" stroke:none;fill-rule:nonzero;fill:rgb(82.352942%,82.352942%,82.352942%);fill-opacity:1;" d="M 254.097656 204.847656 C 255.59375 205.449219 255.59375 205.449219 257.121094 206.0625 C 257.121094 206.859375 257.121094 207.660156 257.121094 208.484375 C 257.722656 208.683594 258.320312 208.886719 258.9375 209.089844 C 258.339844 209.390625 258.339844 209.390625 257.726562 209.695312 C 257.128906 209.496094 256.53125 209.296875 255.914062 209.089844 C 255.914062 208.691406 255.914062 208.289062 255.914062 207.878906 C 254.914062 207.679688 253.917969 207.480469 252.886719 207.273438 C 253.285156 206.472656 253.6875 205.671875 254.097656 204.847656 Z M 254.097656 204.847656 "/>
<path style=" stroke:none;fill-rule:nonzero;fill:rgb(79.607844%,79.607844%,79.607844%);fill-opacity:1;" d="M 279.128906 96.933594 C 279.453125 97.34375 279.777344 97.757812 280.113281 98.183594 C 279.113281 98.582031 278.117188 98.980469 277.085938 99.394531 C 276.089844 98.394531 275.089844 97.394531 274.0625 96.363281 C 277.339844 95.46875 277.339844 95.46875 279.128906 96.933594 Z M 279.128906 96.933594 "/>
<path style=" stroke:none;fill-rule:nonzero;fill:rgb(30.980393%,30.980393%,30.980393%);fill-opacity:1;" d="M 252.886719 171.515625 C 253.285156 171.515625 253.6875 171.515625 254.097656 171.515625 C 253.792969 174.15625 253.261719 176.027344 251.675781 178.183594 C 251.277344 178.183594 250.878906 178.183594 250.46875 178.183594 C 250.269531 178.78125 250.066406 179.382812 249.863281 180 C 250.257812 176.925781 251.589844 174.289062 252.886719 171.515625 Z M 252.886719 171.515625 "/>
<path style=" stroke:none;fill-rule:nonzero;fill:rgb(76.47059%,76.47059%,76.47059%);fill-opacity:1;" d="M 249.257812 196.96875 C 250.46875 197.574219 250.46875 197.574219 251.148438 199.433594 C 251.324219 200.019531 251.496094 200.605469 251.675781 201.210938 C 251.078125 201.210938 250.480469 201.210938 249.863281 201.210938 C 249.664062 202.011719 249.464844 202.8125 249.257812 203.636719 C 249.058594 202.835938 248.859375 202.035156 248.652344 201.210938 C 248.253906 201.210938 247.855469 201.210938 247.441406 201.210938 C 248.046875 199.394531 248.046875 199.394531 249.257812 198.183594 C 249.257812 197.78125 249.257812 197.382812 249.257812 196.96875 Z M 249.257812 196.96875 "/>
<path style=" stroke:none;fill-rule:nonzero;fill:rgb(63.137257%,63.137257%,63.137257%);fill-opacity:1;" d="M 277.691406 123.636719 C 278.488281 126.15625 277.902344 127.8125 277.085938 130.304688 C 276.6875 130.304688 276.289062 130.304688 275.878906 130.304688 C 275.679688 130.902344 275.476562 131.503906 275.273438 132.121094 C 275.074219 131.722656 274.875 131.320312 274.667969 130.910156 C 275.109375 129.652344 275.609375 128.417969 276.140625 127.195312 C 276.429688 126.53125 276.714844 125.867188 277.007812 125.183594 C 277.234375 124.671875 277.460938 124.164062 277.691406 123.636719 Z M 277.691406 123.636719 "/>
<path style=" stroke:none;fill-rule:nonzero;fill:rgb(88.235295%,88.235295%,88.235295%);fill-opacity:1;" d="M 278.296875 98.183594 C 279.097656 98.183594 279.894531 98.183594 280.71875 98.183594 C 280.71875 98.78125 280.71875 99.382812 280.71875 100 C 280.316406 100.398438 279.917969 100.800781 279.507812 101.210938 C 279.40625 102.777344 279.40625 102.777344 279.507812 104.242188 C 278.511719 102.449219 277.96875 100.824219 277.691406 98.789062 C 277.890625 98.585938 278.089844 98.386719 278.296875 98.183594 Z M 278.296875 98.183594 "/>
<path style=" stroke:none;fill-rule:nonzero;fill:rgb(23.921569%,23.921569%,23.921569%);fill-opacity:1;" d="M 263.777344 154.546875 C 263.976562 155.144531 264.175781 155.746094 264.382812 156.363281 C 263.984375 156.363281 263.582031 156.363281 263.171875 156.363281 C 263.171875 156.761719 263.171875 157.164062 263.171875 157.574219 C 263.570312 157.777344 263.972656 157.976562 264.382812 158.183594 C 262.984375 158.980469 261.585938 159.78125 260.148438 160.605469 C 260.953125 158.988281 261.761719 157.375 262.566406 155.757812 C 262.96875 155.757812 263.367188 155.757812 263.777344 155.757812 C 263.777344 155.359375 263.777344 154.957031 263.777344 154.546875 Z M 263.777344 154.546875 "/>
<path style=" stroke:none;fill-rule:nonzero;fill:rgb(78.823531%,78.823531%,78.823531%);fill-opacity:1;" d="M 257.121094 93.332031 C 257.121094 93.933594 257.121094 94.535156 257.121094 95.152344 C 255.726562 95.351562 254.328125 95.550781 252.886719 95.757812 C 253.085938 95.15625 253.285156 94.558594 253.492188 93.9375 C 254.703125 93.332031 254.703125 93.332031 257.121094 93.332031 Z M 257.121094 93.332031 "/>
<path style=" stroke:none;fill-rule:nonzero;fill:rgb(97.647059%,97.647059%,97.647059%);fill-opacity:1;" d="M 274.667969 132.726562 C 275.265625 132.925781 275.867188 133.128906 276.480469 133.332031 C 276.28125 134.132812 276.082031 134.933594 275.878906 135.757812 C 275.476562 135.757812 275.078125 135.757812 274.667969 135.757812 C 274.46875 136.359375 274.269531 136.957031 274.0625 137.574219 C 273.863281 137.574219 273.664062 137.574219 273.457031 137.574219 C 273.988281 133.410156 273.988281 133.410156 274.667969 132.726562 Z M 274.667969 132.726562 "/>
<path style=" stroke:none;fill-rule:nonzero;fill:rgb(89.411765%,89.411765%,89.411765%);fill-opacity:1;" d="M 252.28125 203.03125 C 253.082031 203.429688 253.878906 203.832031 254.703125 204.242188 C 254.304688 205.042969 253.902344 205.84375 253.492188 206.667969 C 252.894531 206.464844 252.292969 206.265625 251.675781 206.0625 C 251.878906 205.0625 252.078125 204.0625 252.28125 203.03125 Z M 252.28125 203.03125 "/>
<path style=" stroke:none;fill-rule:nonzero;fill:rgb(32.941177%,32.941177%,32.941177%);fill-opacity:1;" d="M 251.675781 201.210938 C 252.140625 201.511719 252.601562 201.8125 253.078125 202.121094 C 254.65625 203.179688 254.65625 203.179688 256.519531 203.03125 C 256.519531 203.832031 256.519531 204.628906 256.519531 205.453125 C 254.703125 205.453125 254.703125 205.453125 253.078125 204.015625 C 251.675781 202.425781 251.675781 202.425781 251.675781 201.210938 Z M 251.675781 201.210938 "/>
<path style=" stroke:none;fill-rule:nonzero;fill:rgb(92.941177%,92.941177%,92.941177%);fill-opacity:1;" d="M 268.011719 92.121094 C 269.210938 92.121094 270.410156 92.121094 271.640625 92.121094 C 271.640625 92.722656 271.640625 93.320312 271.640625 93.9375 C 270.246094 93.738281 268.847656 93.539062 267.40625 93.332031 C 267.605469 92.933594 267.808594 92.535156 268.011719 92.121094 Z M 268.011719 92.121094 "/>
<path style=" stroke:none;fill-rule:nonzero;fill:rgb(88.235295%,88.235295%,88.235295%);fill-opacity:1;" d="M 275.273438 206.0625 C 275.074219 206.660156 274.875 207.261719 274.667969 207.878906 C 273.269531 208.257812 273.269531 208.257812 271.640625 208.484375 C 271.042969 208.085938 270.445312 207.683594 269.828125 207.273438 C 273.910156 206.0625 273.910156 206.0625 275.273438 206.0625 Z M 275.273438 206.0625 "/>
</g>
</svg>
